<svg xmlns="http://www.w3.org/2000/svg" xmlns:xlink="http://www.w3.org/1999/xlink" width="30" height="30" viewBox="0 0 30 30">
  <defs>
    <clipPath id="clip-path">
      <rect id="長方形_23123" data-name="長方形 23123" width="30" height="30" transform="translate(4881 -129)" fill="#fff" opacity="0"/>
    </clipPath>
  </defs>
  <g id="マスクグループ_9" data-name="マスクグループ 9" transform="translate(-4881 129)" clip-path="url(#clip-path)">
    <g id="電話の受話器のアイコン素材" transform="translate(4884.499 -129)">
      <path id="パス_4143" data-name="パス 4143" d="M5.555,1.271C3.494,2.608,3.089,6.787,3.867,10.193a30.764,30.764,0,0,0,4.068,9.56,31.949,31.949,0,0,0,7.07,7.613c2.792,2.1,6.773,3.434,8.834,2.1A10.439,10.439,0,0,0,26.5,26.609L25.394,24.9l-3.045-4.7c-.226-.349-1.645-.03-2.366.378a6.864,6.864,0,0,0-1.868,2.029c-.667.385-1.225,0-2.392-.536-1.434-.66-3.047-2.71-4.33-4.567-1.172-1.929-2.387-4.238-2.4-5.816-.014-1.284-.137-1.951.487-2.4a6.865,6.865,0,0,0,2.615-.878c.667-.492,1.537-1.657,1.311-2.006l-3.045-4.7L9.247.005A10.44,10.44,0,0,0,5.555,1.271Z" transform="translate(-3.499 0)" fill="#fff"/>
    </g>
  </g>
</svg>
