<svg xmlns="http://www.w3.org/2000/svg" width="64.883" height="14.609" viewBox="0 0 64.883 14.609">
  <path id="パス_4802" data-name="パス 4802" d="M-29.307-2.354h6.221V0h-9.15V-14.219h2.93ZM-4.746-6.787a8.583,8.583,0,0,1-.742,3.682A5.589,5.589,0,0,1-7.612-.664,5.875,5.875,0,0,1-10.781.2a5.915,5.915,0,0,1-3.154-.85,5.644,5.644,0,0,1-2.148-2.427,8.338,8.338,0,0,1-.771-3.628v-.7a8.538,8.538,0,0,1,.757-3.7A5.635,5.635,0,0,1-13.96-13.56a5.883,5.883,0,0,1,3.159-.854,5.883,5.883,0,0,1,3.159.854A5.635,5.635,0,0,1-5.5-11.108a8.514,8.514,0,0,1,.757,3.687Zm-2.969-.645a5.984,5.984,0,0,0-.8-3.4A2.61,2.61,0,0,0-10.8-11.992a2.611,2.611,0,0,0-2.275,1.147,5.915,5.915,0,0,0-.811,3.364v.693a6.058,6.058,0,0,0,.8,3.379,2.6,2.6,0,0,0,2.3,1.2A2.579,2.579,0,0,0-8.516-3.364a6.023,6.023,0,0,0,.8-3.374ZM13.613-1.8a5.085,5.085,0,0,1-2.236,1.47A9.365,9.365,0,0,1,8.174.2,6.345,6.345,0,0,1,4.937-.61,5.374,5.374,0,0,1,2.788-2.949a8.232,8.232,0,0,1-.776-3.6V-7.52a8.742,8.742,0,0,1,.718-3.687A5.31,5.31,0,0,1,4.8-13.589a5.964,5.964,0,0,1,3.169-.825,5.939,5.939,0,0,1,3.955,1.206A5.154,5.154,0,0,1,13.613-9.7H10.762A2.835,2.835,0,0,0,9.9-11.484a2.76,2.76,0,0,0-1.841-.566,2.6,2.6,0,0,0-2.275,1.123,5.905,5.905,0,0,0-.791,3.34v.908A5.622,5.622,0,0,0,5.84-3.3,2.909,2.909,0,0,0,8.33-2.158a3.25,3.25,0,0,0,2.354-.7V-5.312H8.018V-7.471h5.6Zm19.033-4.99A8.583,8.583,0,0,1,31.9-3.105,5.589,5.589,0,0,1,29.78-.664,5.875,5.875,0,0,1,26.611.2a5.915,5.915,0,0,1-3.154-.85,5.644,5.644,0,0,1-2.148-2.427,8.338,8.338,0,0,1-.771-3.628v-.7a8.538,8.538,0,0,1,.757-3.7,5.635,5.635,0,0,1,2.139-2.451,5.883,5.883,0,0,1,3.159-.854,5.883,5.883,0,0,1,3.159.854,5.635,5.635,0,0,1,2.139,2.451,8.514,8.514,0,0,1,.757,3.687Zm-2.969-.645a5.984,5.984,0,0,0-.8-3.4,2.61,2.61,0,0,0-2.285-1.162,2.611,2.611,0,0,0-2.275,1.147,5.915,5.915,0,0,0-.811,3.364v.693a6.058,6.058,0,0,0,.8,3.379,2.6,2.6,0,0,0,2.3,1.2,2.579,2.579,0,0,0,2.266-1.157,6.023,6.023,0,0,0,.8-3.374Z" transform="translate(32.236 14.414)" fill="#222"/>
</svg>
